<?xml version="1.0" encoding="UTF-8"?><svg id="Layer_1" xmlns="http://www.w3.org/2000/svg" viewBox="0 0 70 70"><defs><style>.cls-1{fill:#fff;}.cls-2{fill:#a1a866;}.cls-3{opacity:.2;}</style></defs><path class="cls-2" d="m4.72.09h60.55c2.56,0,4.63,2.07,4.63,4.63v60.55c0,2.55-2.07,4.63-4.63,4.63H4.72c-2.55,0-4.63-2.07-4.63-4.63V4.72C.09,2.17,2.17.09,4.72.09Z"/><path class="cls-3" d="m59.28,59.28l-38.34,10.62H4.72c-2.56,0-4.63-2.07-4.63-4.63V17.02l10.5-6.42,8.09,1.51,5.04-.72h10.22l4.37.85,4.87,5.71,16.09.18v41.16Z"/><path class="cls-1" d="m58.68,17.08c-4.71,0-9.42,0-14.12,0-.35,0-.59-.1-.83-.35-1.28-1.3-2.58-2.58-3.86-3.88-.91-.92-1.96-1.6-3.2-1.97-.4-.12-.82-.2-1.23-.3h-11.7c-.97.43-1.95.85-2.91,1.3-.67.31-1.35.37-2.13.22v-1.51h-8.09v17.89h8.13v-2.44c.77-.05,1.46-.11,2.07.42.32.27.73.47,1.13.6,1.06.34,2.14.62,3.3.95v10.16h34.05v-21.09h-.6Zm-41.64,9.74h-4.79v-14.58h4.79v14.58Zm7.84-4.66c.13.08.32.23.32.34.02,1.22.01,2.44.01,3.7-.94-.02-1.79-.23-2.6-.59-.39-.17-.79-.36-1.12-.62-.62-.49-1.3-.68-2.07-.59-.21.02-.44,0-.68,0v-10.6c.46,0,.93.1,1.33-.02.9-.28,1.79-.62,2.64-1.03.72-.35,1.43-.54,2.23-.53,3.09.02,6.19.03,9.28,0,1.82-.02,3.34.59,4.6,1.9.94.98,1.93,1.91,2.97,2.95-.23.02-.33.03-.44.03-1.95,0-3.9.01-5.85-.01-.23,0-.52-.12-.69-.29-.56-.53-1.09-1.1-1.64-1.68-.41.44-.76.82-1.15,1.23,1.1,1.09,2.23,2.21,3.35,3.33.8.79,1.61,1.58,2.38,2.39.62.65.6,1.61,0,2.23-.6.62-1.55.67-2.24.1-.16-.13-.3-.28-.45-.43-1.47-1.47-2.93-2.94-4.43-4.44-.9.88-1.93,1.47-3.2,1.51-1.27.04-2.35-.44-3.3-1.33-.35.43-.67.83-1.07,1.33.64.39,1.25.75,1.84,1.13Zm13.56,6.93c.42,1.15,1.21,1.96,2.34,2.42,1.79.73,3.87.08,4.94-1.55,1.07-1.62.86-3.78-.51-5.15-1.52-1.53-3.53-1.59-5.77-.13.39-.9.48-1.75.14-2.67.15-.02.27-.05.39-.05,3.34,0,6.69,0,10.04,0,.25,0,.43,0,.52.33.52,1.95,1.78,3.16,3.74,3.64.04.01.09.03.16.07v3.33c-2.15.5-3.5,1.83-4,4h-16.34c-.5-2.15-1.83-3.48-3.98-3.99v-3.36c1.16-.24,2.13-.79,2.96-1.76.31.34.58.64.87.93,1.51,1.5,2.88,1.67,4.78.51-.58,1.17-.7,2.29-.28,3.45Zm1.38-1.48c.02-1.33,1.11-2.39,2.45-2.39,1.34,0,2.41,1.07,2.41,2.42,0,1.36-1.1,2.47-2.44,2.45-1.34-.01-2.44-1.14-2.43-2.48Zm17.84,8.95h-30.79v-13.91c1.29.04,2.49-.24,3.58-.93.45.47.88.93,1.36,1.43-.79,1.05-1.95,1.34-3.3,1.23v6.5c1.12-.06,2.19.1,3.05.94.87.85,1.02,1.92.95,3.09h19.49c-.06-1.13.1-2.21.94-3.06.85-.86,1.92-1.03,3.1-.97v-6.5c-1.14.08-2.21-.08-3.06-.93-.86-.85-1.04-1.92-.97-3.13h-.64c-4.2,0-8.4,0-12.6-.01-.24,0-.51-.12-.7-.28-.44-.38-.84-.81-1.34-1.29h20.95v17.81Z"/><path class="cls-1" d="m51.18,43.1v2.59c-.65-.39-1.23-.72-1.79-1.07-.8-.51-1.66-.75-2.61-.73-1,.02-2-.01-3,.02-.49.01-.99.06-1.46.18-3.06.8-6.11,1.64-9.18,2.43-1.23.32-2.18.91-2.69,2.18-.21-.11-.38-.2-.54-.29-2.58-1.39-5.15-2.8-7.73-4.18-1.6-.85-3.52-.31-4.38,1.21-.89,1.58-.41,3.49,1.16,4.43,4.94,2.97,9.9,5.92,14.85,8.88.65.39,1.37.58,2.13.58,3.76,0,7.52.01,11.27-.01.57,0,1.16-.16,1.71-.32.63-.19,1.24-.48,1.86-.72.12-.05.25-.07.44-.13v1.15h8.06v-16.19h-8.11Zm.06,6.11c-.12,2.23-.04,4.47-.03,6.71,0,.32-.09.48-.4.59-.85.31-1.67.68-2.52.98-.35.12-.74.2-1.11.2-3.71.01-7.42.02-11.13,0-.5,0-1.06-.14-1.48-.39-4.92-2.91-9.83-5.85-14.73-8.8-.84-.51-1.09-1.46-.63-2.25.45-.77,1.39-1.01,2.24-.56,2.89,1.55,5.77,3.11,8.65,4.68.12.07.24.2.29.33.65,1.78,2.04,2.66,3.87,2.23,2.98-.72,5.94-1.56,8.9-2.35.03,0,.05-.04.1-.08-.12-.47-.25-.95-.39-1.5-.88.23-1.72.46-2.58.68-2.16.56-4.31,1.14-6.48,1.68-.84.21-1.64-.3-1.87-1.12-.23-.82.22-1.7,1.07-1.96,1.18-.36,2.38-.66,3.57-.98,1.96-.53,3.9-1.1,5.88-1.55.9-.2,1.85-.2,2.78-.21,2.89,0,2.02-.18,4.6,1.22,1.07.58,1.46,1.24,1.39,2.47Zm6.42,8.46h-4.8v-12.94h4.8v12.94Z"/></svg>